# xmcd
#
# Track frame offsets: 
#        150
#        15580
#        35679
#        51662
#        68393
#        80015
#        97583
#        111376
#        125984
#        141080
#        152888
#        162434
#        176357
#        192069
#        210681
#        224556
#        241201
#        258432
#
# Disc length: 3664 seconds
#
# Revision: 0
# Processed by: cddbd v1.5.2PL0 Copyright (c) Steve Scherf et al.
# Submitted via: ExactAudioCopy v0.95b2
#
DISCID=040e4e12
DTITLE=Various Artist - The Spirit of Country Australia
DYEAR=2006
DGENRE=Country
TTITLE0=Settle Down
TTITLE1=I Was Wrong
TTITLE2=Chillers Bend
TTITLE3=Up and Done Died
TTITLE4=Bluer Skies
TTITLE5=Mary Valley Dreams
TTITLE6=Rousy's Life
TTITLE7=I'd Be Worse Off
TTITLE8=Incommunicado
TTITLE9=Cool To Be A Cowboy
TTITLE10=The Psychiatrist's Joy From Kingaroy
TTITLE11=1933
TTITLE12=Shelter
TTITLE13=Mustering Time
TTITLE14=Where I Wanna Be
TTITLE15=In The Dark
TTITLE16=You've Got It All Going On
TTITLE17=The Wall
EXTD=
EXTT0=
EXTT1=
EXTT2=
EXTT3=
EXTT4=
EXTT5=
EXTT6=
EXTT7=
EXTT8=
EXTT9=
EXTT10=
EXTT11=
EXTT12=
EXTT13=
EXTT14=
EXTT15=
EXTT16=
EXTT17=
PLAYORDER=
